<svg width="47" height="47" viewBox="0 0 47 47" fill="none" xmlns="http://www.w3.org/2000/svg">
<g filter="url(#filter0_d_3_296)">
<rect width="45" height="45" rx="10" fill="white"/>
<rect x="0.5" y="0.5" width="44" height="44" rx="9.5" stroke="#CDCDCD" stroke-opacity="0.5"/>
</g>
<g clip-path="url(#clip0_3_296)">
<rect width="32" height="32" transform="translate(6 6)" fill="white"/>
<g clip-path="url(#clip1_3_296)">
<g opacity="0.9">
<rect x="12" y="8" width="20" height="28" stroke="#F8CCD5" stroke-opacity="0.33" stroke-width="0.1"/>
<rect x="14" y="14" width="16" height="16" stroke="#F8CCD5" stroke-opacity="0.33" stroke-width="0.1"/>
<path d="M36 12V32H8L8 12L36 12Z" stroke="#F8CCD5" stroke-opacity="0.33" stroke-width="0.1"/>
<path d="M34 10V34H10L10 10L34 10Z" stroke="#F8CCD5" stroke-opacity="0.33" stroke-width="0.1"/>
<circle cx="22" cy="22" r="14" stroke="#F8CCD5" stroke-opacity="0.33" stroke-width="0.1"/>
<circle cx="22" cy="22" r="8" stroke="#F8CCD5" stroke-opacity="0.33" stroke-width="0.1"/>
<path d="M6 6L38 38" stroke="#F8CCD5" stroke-opacity="0.33" stroke-width="0.1"/>
<path d="M22 6L22 38" stroke="#F8CCD5" stroke-opacity="0.33" stroke-width="0.1"/>
<path d="M17 6L17 38" stroke="#F8CCD5" stroke-opacity="0.33" stroke-width="0.1"/>
<path d="M38 17L6 17" stroke="#F8CCD5" stroke-opacity="0.33" stroke-width="0.1"/>
<path d="M27 6L27 38" stroke="#F8CCD5" stroke-opacity="0.33" stroke-width="0.1"/>
<path d="M38 27L6 27" stroke="#F8CCD5" stroke-opacity="0.33" stroke-width="0.1"/>
<path d="M38 22L6 22" stroke="#F8CCD5" stroke-opacity="0.33" stroke-width="0.1"/>
<path d="M38 6L6 38" stroke="#F8CCD5" stroke-opacity="0.33" stroke-width="0.1"/>
</g>
</g>
<path fill-rule="evenodd" clip-rule="evenodd" d="M33.9785 19.2109C35.2237 18.0268 36 16.354 36 14.5C36 10.9101 33.0898 8 29.5 8C27.2543 8 25.2746 9.13882 24.1069 10.8705C24.6177 11.3536 25.0801 11.8875 25.4858 12.4641C26.2289 11.0018 27.7474 10 29.5 10C31.9853 10 34 12.0147 34 14.5C34 15.606 33.601 16.6188 32.939 17.4024C33.3766 17.9406 33.7298 18.5502 33.9785 19.2109Z" fill="url(#paint0_linear_3_296)"/>
<path fill-rule="evenodd" clip-rule="evenodd" d="M8 19C8 23.3628 10.4494 27.1323 14 28.9107V26.6003C11.6102 25.0152 10 22.2291 10 19C10 13.9605 13.9218 10 18.6083 10C22.5839 10 26.0091 12.85 26.9569 16.7911L26.9599 16.7899C27.0937 17.3367 27.1791 17.9037 27.2108 18.4855C27.8339 18.1732 28.5272 18 29.2493 18C31.8053 18 34 20.1696 34 23C34 24.7105 33.1984 26.1797 32 27.0745V29.3944C34.3573 28.3025 36 25.8501 36 23C36 19.134 32.9776 16 29.2493 16C29.1054 16 28.9626 16.0047 28.821 16.0139C27.5661 11.3898 23.469 8 18.6083 8C12.7495 8 8 12.9249 8 19ZM24.7189 26.2026C24.9286 26.3237 25.2571 26.2708 25.4251 25.9798C25.5171 25.8204 25.6353 25.4894 25.7209 24.9505C25.7551 24.7356 25.7808 24.509 25.7994 24.2764C25.2154 24.6896 24.7729 25.1084 24.5587 25.4794C24.3908 25.7704 24.5092 26.0815 24.7189 26.2026ZM25.7944 21.9217C26.8367 21.3377 27.7192 21.0041 27.7192 21.0041C27.7192 21.0041 27.8346 21.9432 27.8392 23.1264C27.8441 24.4225 27.7159 26.0116 27.157 26.98C26.4541 28.1979 24.9149 28.6254 23.7192 27.9348C22.5235 27.2442 22.1239 25.697 22.8268 24.4792C23.4402 23.4164 24.7046 22.5322 25.7944 21.9217ZM18.1161 27.2204C18.3258 27.3415 18.6543 27.2886 18.8222 26.9976C18.9142 26.8382 19.0324 26.5072 19.1181 25.9683C19.1522 25.7535 19.178 25.5269 19.1966 25.2942C18.6125 25.7074 18.17 26.1262 17.9559 26.4972C17.7879 26.7883 17.9064 27.0993 18.1161 27.2204ZM19.1915 22.9395C20.2339 22.3555 21.1164 22.0219 21.1164 22.0219C21.1164 22.0219 21.2318 22.961 21.2363 24.1442C21.2412 25.4403 21.1131 27.0294 20.5541 27.9979C19.8512 29.2157 18.3121 29.6432 17.1164 28.9526C15.9206 28.262 15.5211 26.7149 16.224 25.497C16.8374 24.4342 18.1018 23.55 19.1915 22.9395ZM27.6793 32.1128C27.5113 32.4039 27.1828 32.4567 26.9731 32.3356C26.7635 32.2145 26.645 31.9035 26.8129 31.6125C27.0271 31.2415 27.4696 30.8227 28.0537 30.4094C28.035 30.6421 28.0093 30.8687 27.9751 31.0835C27.8895 31.6224 27.7713 31.9535 27.6793 32.1128ZM29.9734 27.1372C29.9734 27.1372 29.0909 27.4708 28.0486 28.0547C26.9589 28.6653 25.6944 29.5495 25.0811 30.6122C24.3782 31.8301 24.7777 33.3772 25.9734 34.0678C27.1691 34.7584 28.7083 34.331 29.4112 33.1131C29.9701 32.1447 30.0983 30.5556 30.0934 29.2594C30.0889 28.0762 29.9734 27.1372 29.9734 27.1372ZM20.2548 33.9374C20.4645 34.0585 20.793 34.0057 20.961 33.7146C21.0529 33.5553 21.1712 33.2243 21.2568 32.6854C21.291 32.4705 21.3167 32.2439 21.3353 32.0112C20.7513 32.4245 20.3088 32.8433 20.0946 33.2143C19.9267 33.5053 20.0451 33.8163 20.2548 33.9374ZM21.3303 29.6565C22.3726 29.0726 23.2551 28.739 23.2551 28.739C23.2551 28.739 23.3705 29.678 23.375 30.8612C23.38 32.1574 23.2518 33.7465 22.6929 34.7149C21.99 35.9328 20.4508 36.3602 19.2551 35.6696C18.0594 34.979 17.6598 33.4319 18.3627 32.214C18.9761 31.1513 20.2405 30.2671 21.3303 29.6565Z" fill="url(#paint1_linear_3_296)"/>
<path fill-rule="evenodd" clip-rule="evenodd" d="M33.9785 19.2109C35.2237 18.0268 36 16.354 36 14.5C36 10.9101 33.0898 8 29.5 8C27.2543 8 25.2746 9.13882 24.1069 10.8705C24.6177 11.3536 25.0801 11.8875 25.4858 12.4641C26.2289 11.0018 27.7474 10 29.5 10C31.9853 10 34 12.0147 34 14.5C34 15.606 33.601 16.6188 32.939 17.4024C33.3766 17.9406 33.7298 18.5502 33.9785 19.2109Z" fill="url(#paint2_linear_3_296)"/>
<path fill-rule="evenodd" clip-rule="evenodd" d="M8 19C8 23.3628 10.4494 27.1323 14 28.9107V26.6003C11.6102 25.0152 10 22.2291 10 19C10 13.9605 13.9218 10 18.6083 10C22.5839 10 26.0091 12.85 26.9569 16.7911L26.9599 16.7899C27.0937 17.3367 27.1791 17.9037 27.2108 18.4855C27.8339 18.1732 28.5272 18 29.2493 18C31.8053 18 34 20.1696 34 23C34 24.7105 33.1984 26.1797 32 27.0745V29.3944C34.3573 28.3025 36 25.8501 36 23C36 19.134 32.9776 16 29.2493 16C29.1054 16 28.9626 16.0047 28.821 16.0139C27.5661 11.3898 23.469 8 18.6083 8C12.7495 8 8 12.9249 8 19ZM24.7189 26.2026C24.9286 26.3237 25.2571 26.2708 25.4251 25.9798C25.5171 25.8204 25.6353 25.4894 25.7209 24.9505C25.7551 24.7356 25.7808 24.509 25.7994 24.2764C25.2154 24.6896 24.7729 25.1084 24.5587 25.4794C24.3908 25.7704 24.5092 26.0815 24.7189 26.2026ZM25.7944 21.9217C26.8367 21.3377 27.7192 21.0041 27.7192 21.0041C27.7192 21.0041 27.8346 21.9432 27.8392 23.1264C27.8441 24.4225 27.7159 26.0116 27.157 26.98C26.4541 28.1979 24.9149 28.6254 23.7192 27.9348C22.5235 27.2442 22.1239 25.697 22.8268 24.4792C23.4402 23.4164 24.7046 22.5322 25.7944 21.9217ZM18.1161 27.2204C18.3258 27.3415 18.6543 27.2886 18.8222 26.9976C18.9142 26.8382 19.0324 26.5072 19.1181 25.9683C19.1522 25.7535 19.178 25.5269 19.1966 25.2942C18.6125 25.7074 18.17 26.1262 17.9559 26.4972C17.7879 26.7883 17.9064 27.0993 18.1161 27.2204ZM19.1915 22.9395C20.2339 22.3555 21.1164 22.0219 21.1164 22.0219C21.1164 22.0219 21.2318 22.961 21.2363 24.1442C21.2412 25.4403 21.1131 27.0294 20.5541 27.9979C19.8512 29.2157 18.3121 29.6432 17.1164 28.9526C15.9206 28.262 15.5211 26.7149 16.224 25.497C16.8374 24.4342 18.1018 23.55 19.1915 22.9395ZM27.6793 32.1128C27.5113 32.4039 27.1828 32.4567 26.9731 32.3356C26.7635 32.2145 26.645 31.9035 26.8129 31.6125C27.0271 31.2415 27.4696 30.8227 28.0537 30.4094C28.035 30.6421 28.0093 30.8687 27.9751 31.0835C27.8895 31.6224 27.7713 31.9535 27.6793 32.1128ZM29.9734 27.1372C29.9734 27.1372 29.0909 27.4708 28.0486 28.0547C26.9589 28.6653 25.6944 29.5495 25.0811 30.6122C24.3782 31.8301 24.7777 33.3772 25.9734 34.0678C27.1691 34.7584 28.7083 34.331 29.4112 33.1131C29.9701 32.1447 30.0983 30.5556 30.0934 29.2594C30.0889 28.0762 29.9734 27.1372 29.9734 27.1372ZM20.2548 33.9374C20.4645 34.0585 20.793 34.0057 20.961 33.7146C21.0529 33.5553 21.1712 33.2243 21.2568 32.6854C21.291 32.4705 21.3167 32.2439 21.3353 32.0112C20.7513 32.4245 20.3088 32.8433 20.0946 33.2143C19.9267 33.5053 20.0451 33.8163 20.2548 33.9374ZM21.3303 29.6565C22.3726 29.0726 23.2551 28.739 23.2551 28.739C23.2551 28.739 23.3705 29.678 23.375 30.8612C23.38 32.1574 23.2518 33.7465 22.6929 34.7149C21.99 35.9328 20.4508 36.3602 19.2551 35.6696C18.0594 34.979 17.6598 33.4319 18.3627 32.214C18.9761 31.1513 20.2405 30.2671 21.3303 29.6565Z" fill="url(#paint3_linear_3_296)"/>
</g>
<defs>
<filter id="filter0_d_3_296" x="0" y="0" width="47" height="47" filterUnits="userSpaceOnUse" color-interpolation-filters="sRGB">
<feFlood flood-opacity="0" result="BackgroundImageFix"/>
<feColorMatrix in="SourceAlpha" type="matrix" values="0 0 0 0 0 0 0 0 0 0 0 0 0 0 0 0 0 0 127 0" result="hardAlpha"/>
<feOffset dx="1" dy="1"/>
<feGaussianBlur stdDeviation="0.5"/>
<feComposite in2="hardAlpha" operator="out"/>
<feColorMatrix type="matrix" values="0 0 0 0 0 0 0 0 0 0 0 0 0 0 0 0 0 0 0.25 0"/>
<feBlend mode="normal" in2="BackgroundImageFix" result="effect1_dropShadow_3_296"/>
<feBlend mode="normal" in="SourceGraphic" in2="effect1_dropShadow_3_296" result="shape"/>
</filter>
<linearGradient id="paint0_linear_3_296" x1="30.0535" y1="8" x2="30.0535" y2="19.2109" gradientUnits="userSpaceOnUse">
<stop stop-color="#EFC977"/>
<stop offset="1" stop-color="#E07256"/>
</linearGradient>
<linearGradient id="paint1_linear_3_296" x1="22" y1="8" x2="22" y2="35.9999" gradientUnits="userSpaceOnUse">
<stop stop-color="#95B6F6"/>
<stop offset="1" stop-color="#5193DE"/>
</linearGradient>
<linearGradient id="paint2_linear_3_296" x1="30.0535" y1="8" x2="30.0535" y2="19.2109" gradientUnits="userSpaceOnUse">
<stop stop-color="#EFC977"/>
<stop offset="1" stop-color="#E07256"/>
</linearGradient>
<linearGradient id="paint3_linear_3_296" x1="22" y1="8" x2="22" y2="35.9999" gradientUnits="userSpaceOnUse">
<stop stop-color="#95B6F6"/>
<stop offset="1" stop-color="#5193DE"/>
</linearGradient>
<clipPath id="clip0_3_296">
<rect width="32" height="32" fill="white" transform="translate(6 6)"/>
</clipPath>
<clipPath id="clip1_3_296">
<rect width="32" height="32" fill="white" transform="translate(6 6)"/>
</clipPath>
</defs>
</svg>
