<svg width="23" height="23" viewBox="0 0 23 23" fill="none" xmlns="http://www.w3.org/2000/svg">
<path d="M19.4947 5.33207C19.4694 5.33207 19.4409 5.33207 19.4156 5.32886L21.1132 4.63658C20.711 5.06334 20.1367 5.33207 19.4939 5.33207H19.4947Z" fill="#151515"/>
<path d="M5.57237 6.42543L11.1594 4.14244V20.717L5.57237 23V6.42543ZM19.4947 12.6182C19.4947 12.6182 18.0484 10.5639 16.7449 8.27285C16.7416 8.26563 16.7342 8.2552 16.7302 8.24798V23L16.7375 22.9968L16.7449 22.9936L22.3197 20.717V8.1453C20.9949 10.4861 19.4947 12.6182 19.4947 12.6182Z" fill="#C3C3C3"/>
<path d="M5.58705 23L0 20.7162V4.14163L5.58705 6.42463V22.9992V23ZM16.731 8.24797C16.2897 7.47467 15.8655 6.67731 15.5212 5.92487L11.1594 4.14243V20.7162L16.731 22.9928L16.7383 22.996L16.7457 22.9992V8.27284C16.7424 8.26562 16.7351 8.25519 16.731 8.24797Z" fill="#E8E6E6"/>
<path d="M19.4964 0C17.5614 0 15.9927 1.54259 15.9927 3.44535C15.9927 5.34811 19.4964 10.3288 19.4964 10.3288C19.4964 10.3288 23 5.34811 23 3.44535C23 1.54259 21.4313 0 19.4964 0ZM19.4964 5.02884C18.6072 5.02884 17.8861 4.31972 17.8861 3.44535C17.8861 2.57098 18.6072 1.86185 19.4964 1.86185C20.3855 1.86185 21.1067 2.57098 21.1067 3.44535C21.1067 4.31972 20.3855 5.02884 19.4964 5.02884Z" fill="white"/>
</svg>
