<svg width="16" height="16" viewBox="0 0 16 16" fill="none" xmlns="http://www.w3.org/2000/svg">
<path d="M8 15C4.13401 15 1.00003 11.866 1.00003 8C1.00003 4.13401 4.13404 1 8.00003 1C11.1344 1 13.758 3.06003 14.65 5.9H12.9" stroke="#141B34" stroke-width="2" stroke-linecap="round" stroke-linejoin="round"/>
<path d="M8 5.2V8L9.4 9.4" stroke="#141B34" stroke-width="2" stroke-linecap="round" stroke-linejoin="round"/>
<path d="M14.9686 8.7C14.9894 8.4696 15 8.2361 15 8M10.1 15C10.3391 14.9213 10.5727 14.8295 10.8 14.7254M14.1534 11.5C14.2884 11.2399 14.4088 10.9703 14.5135 10.6924M12.3347 13.7605C12.5759 13.5609 12.8042 13.3451 13.0182 13.1145" stroke="#141B34" stroke-width="2" stroke-linecap="round" stroke-linejoin="round"/>
</svg>
