<svg width="32" height="32" viewBox="0 0 32 32" fill="none" xmlns="http://www.w3.org/2000/svg">
<rect width="32" height="32" rx="6" fill="#E8F1FD"/>
<path fill-rule="evenodd" clip-rule="evenodd" d="M6.90255 13.3983L6.8906 13.4063C6.3342 13.7772 6 14.4017 6 15.0704V23C6 23.5523 6.44772 24 7 24H8C8.55228 24 9 23.5523 9 23V22H23V23C23 23.5523 23.4477 24 24 24H25C25.5523 24 26 23.5523 26 23V15.0704C26 14.4017 25.6658 13.7772 25.1094 13.4063L25.0974 13.3983C25.4619 13.1878 25.792 12.981 25.8561 12.8889C26.0108 12.6667 26.0819 12 25.8561 12H24L22.8292 9.65836C22.321 8.64201 21.2822 8 20.1459 8H11.8541C10.7178 8 9.679 8.64201 9.17082 9.65836L8 12H6.14388C5.91814 12 5.9892 12.6667 6.14388 12.8889C6.20802 12.981 6.5381 13.1878 6.90255 13.3983ZM10.102 10.0588L8.39216 13.2647C8.21453 13.5978 8.45587 14 8.83333 14H23.1667C23.5441 14 23.7855 13.5978 23.6078 13.2647L21.898 10.0588C21.5505 9.4071 20.872 9 20.1333 9H11.8667C11.128 9 10.4496 9.4071 10.102 10.0588ZM7 17.0799V15.8705C7 15.4846 7.41861 15.2442 7.75194 15.4386L11.0908 17.3863C11.5509 17.6547 11.3282 18.3607 10.7973 18.3164L7.91695 18.0764C7.39866 18.0332 7 17.6 7 17.0799ZM25 15.8705V17.0799C25 17.6 24.6013 18.0332 24.083 18.0764L21.2027 18.3164C20.6718 18.3607 20.4491 17.6547 20.9092 17.3863L24.2481 15.4386C24.5814 15.2442 25 15.4846 25 15.8705Z" fill="#1577EA"/>
</svg>
