<svg width="32" height="32" viewBox="0 0 32 32" fill="none" xmlns="http://www.w3.org/2000/svg">
<rect width="32" height="32" rx="6" fill="#E8F1FD"/>
<path d="M13.5 26H18.5M12 6H20M16 9V6M8 16H24M21 23L22.5 26M11 23L9.5 26M12.5 19.5H12.51M19.5 19.5H19.51M12.8 23H19.2C20.8802 23 21.7202 23 22.362 22.673C22.9265 22.3854 23.3854 21.9265 23.673 21.362C24 20.7202 24 19.8802 24 18.2V13.8C24 12.1198 24 11.2798 23.673 10.638C23.3854 10.0735 22.9265 9.6146 22.362 9.32698C21.7202 9 20.8802 9 19.2 9H12.8C11.1198 9 10.2798 9 9.63803 9.32698C9.07354 9.6146 8.6146 10.0735 8.32698 10.638C8 11.2798 8 12.1198 8 13.8V18.2C8 19.8802 8 20.7202 8.32698 21.362C8.6146 21.9265 9.07354 22.3854 9.63803 22.673C10.2798 23 11.1198 23 12.8 23ZM13 19.5C13 19.7761 12.7761 20 12.5 20C12.2239 20 12 19.7761 12 19.5C12 19.2239 12.2239 19 12.5 19C12.7761 19 13 19.2239 13 19.5ZM20 19.5C20 19.7761 19.7761 20 19.5 20C19.2239 20 19 19.7761 19 19.5C19 19.2239 19.2239 19 19.5 19C19.7761 19 20 19.2239 20 19.5Z" stroke="#1577EA" stroke-width="2" stroke-linecap="round" stroke-linejoin="round"/>
</svg>
