<svg width="32" height="32" viewBox="0 0 32 32" fill="none" xmlns="http://www.w3.org/2000/svg">
<rect width="32" height="32" rx="6" fill="#E8F1FD"/>
<g clip-path="url(#clip0_3_394)">
<path d="M18.3676 9.95683C19.1692 10.0131 19.8864 9.42245 19.9567 8.59277C20.0129 7.7912 19.4223 7.07402 18.5926 7.0037C17.7911 6.94745 17.0739 7.53808 17.0036 8.36777C16.9473 9.18339 17.5661 9.90058 18.3676 9.95683Z" fill="#1577EA"/>
<path d="M16.5311 10.3106C16.8124 10.0996 17.1639 9.98711 17.5577 10.0012C18.0499 10.0434 18.4858 10.3527 18.7249 10.7184L20.2014 13.6574L22.2124 15.0637C22.3811 15.2043 22.4936 15.4152 22.4796 15.6402C22.4655 16.0059 22.128 16.2731 21.7624 16.2309C21.6639 16.2309 21.5514 16.1887 21.453 16.1324L19.2874 14.6559C19.2311 14.5996 19.1608 14.5293 19.1186 14.4449L18.5561 13.3481L17.8952 16.2731L20.5108 19.3668C20.5671 19.4652 20.6092 19.5777 20.6374 19.6762L21.3405 23.4027C21.3405 23.4871 21.3405 23.5434 21.3405 23.6137C21.2983 24.1762 20.8202 24.5559 20.2717 24.5418C19.8217 24.4996 19.4842 24.1762 19.3717 23.7543L18.7108 20.2809L16.5874 17.9184L16.0952 20.1824C16.0811 20.2809 15.9264 20.5059 15.8842 20.5902L13.8592 24.0356C13.6483 24.3449 13.3249 24.5559 12.9311 24.5137C12.3686 24.4715 11.9608 23.9934 12.003 23.4449C12.0171 23.2762 12.0874 23.1356 12.1436 23.009L14.0421 19.8449L15.6171 12.8559L14.5905 13.6856L14.028 16.1746C13.9717 16.484 13.6624 16.7512 13.3249 16.7371C12.9592 16.7231 12.6921 16.3856 12.7061 16.0199C12.7061 16.0059 12.7061 15.9637 12.7202 15.9356L13.353 13.0387C13.3952 12.9121 13.4514 12.8137 13.5639 12.7293L16.5311 10.3106Z" fill="#1577EA"/>
</g>
<defs>
<clipPath id="clip0_3_394">
<rect width="18" height="18" fill="white" transform="translate(4 7)"/>
</clipPath>
</defs>
</svg>
