<svg width="32" height="32" viewBox="0 0 32 32" fill="none" xmlns="http://www.w3.org/2000/svg">
<rect width="32" height="32" rx="6" fill="#E8F1FD"/>
<path d="M8 10L6 11" stroke="#1577EA" stroke-width="2" stroke-linecap="round" stroke-linejoin="round"/>
<path d="M14 10H18" stroke="#1577EA" stroke-width="2" stroke-linecap="round" stroke-linejoin="round"/>
<path d="M26 11L24 10" stroke="#1577EA" stroke-width="2" stroke-linecap="round" stroke-linejoin="round"/>
<path d="M22 7H10C8.89543 7 8 7.89543 8 9V21C8 22.1046 8.89543 23 10 23H22C23.1046 23 24 22.1046 24 21V9C24 7.89543 23.1046 7 22 7Z" stroke="#1577EA" stroke-width="2" stroke-linecap="round" stroke-linejoin="round"/>
<path d="M8 15H24" stroke="#1577EA" stroke-width="2" stroke-linecap="round" stroke-linejoin="round"/>
<path d="M12 19H12.01" stroke="#1577EA" stroke-width="2" stroke-linecap="round" stroke-linejoin="round"/>
<path d="M20 19H20.01" stroke="#1577EA" stroke-width="2" stroke-linecap="round" stroke-linejoin="round"/>
<path d="M10 23V25" stroke="#1577EA" stroke-width="2" stroke-linecap="round" stroke-linejoin="round"/>
<path d="M22 25V23" stroke="#1577EA" stroke-width="2" stroke-linecap="round" stroke-linejoin="round"/>
</svg>
