<svg width="32" height="32" viewBox="0 0 32 32" fill="none" xmlns="http://www.w3.org/2000/svg">
<rect width="32" height="32" rx="6" fill="#E8F1FD"/>
<path d="M6.73438 19.75C6.73438 20.4959 7.04304 21.2113 7.59246 21.7387C8.14188 22.2662 8.88706 22.5625 9.66406 22.5625C10.4411 22.5625 11.1862 22.2662 11.7357 21.7387C12.2851 21.2113 12.5937 20.4959 12.5938 19.75C12.5937 19.0041 12.2851 18.2887 11.7357 17.7613C11.1862 17.2338 10.4411 16.9375 9.66406 16.9375C8.88706 16.9375 8.14188 17.2338 7.59246 17.7613C7.04304 18.2887 6.73438 19.0041 6.73438 19.75Z" stroke="#1577EA" stroke-linecap="round" stroke-linejoin="round"/>
<path d="M20.4062 19.75C20.4062 20.4959 20.7149 21.2113 21.2643 21.7387C21.8138 22.2662 22.5589 22.5625 23.3359 22.5625C24.1129 22.5625 24.8581 22.2662 25.4075 21.7387C25.957 21.2113 26.2656 20.4959 26.2656 19.75C26.2656 19.0041 25.957 18.2887 25.4075 17.7613C24.8581 17.2338 24.1129 16.9375 23.3359 16.9375C22.5589 16.9375 21.8138 17.2338 21.2643 17.7613C20.7149 18.2887 20.4062 19.0041 20.4062 19.75Z" stroke="#1577EA" stroke-linecap="round" stroke-linejoin="round"/>
<path d="M10.6406 14.125H20.8945L16.9883 17.875H12.1055L16.0117 14.125" stroke="#1577EA" stroke-linecap="round" stroke-linejoin="round"/>
<path d="M17.4766 10.375H19.4297L20.8945 13.1875L22.8477 16.9375" stroke="#1577EA" stroke-linecap="round" stroke-linejoin="round"/>
</svg>
